<svg width="21" height="21" viewBox="0 0 21 21" fill="none" xmlns="http://www.w3.org/2000/svg">
<path d="M7.86036 20.0338C8.81943 20.3238 9.78848 20.4938 10.8175 20.4938C13.4671 20.4938 16.0081 19.4403 17.8817 17.5649C19.7552 15.6895 20.8078 13.146 20.8078 10.4938C20.8078 9.18062 20.5493 7.88026 20.0473 6.667C19.5452 5.45374 18.8094 4.35135 17.8817 3.42277C16.954 2.49418 15.8527 1.75759 14.6406 1.25504C13.4285 0.752493 12.1294 0.493835 10.8175 0.493835C9.50554 0.493835 8.20645 0.752493 6.99437 1.25504C5.78229 1.75759 4.68098 2.49418 3.75329 3.42277C1.87975 5.29813 0.827209 7.84167 0.827209 10.4938C0.827209 14.7438 3.49461 18.3938 7.26094 19.8338C7.17103 19.0538 7.08112 17.7638 7.26094 16.8738L8.40983 11.9338C8.40983 11.9338 8.12011 11.3538 8.12011 10.4338C8.12011 9.05384 8.97927 8.02384 9.95832 8.02384C10.8175 8.02384 11.2171 8.65384 11.2171 9.46384C11.2171 10.3238 10.6476 11.5538 10.3579 12.7338C10.1881 13.7138 10.8774 14.5738 11.8765 14.5738C13.6547 14.5738 15.0334 12.6738 15.0334 9.99384C15.0334 7.59384 13.315 5.95384 10.8475 5.95384C8.0302 5.95384 6.37181 8.05384 6.37181 10.2638C6.37181 11.1238 6.65154 11.9938 7.11109 12.5638C7.201 12.6238 7.201 12.7038 7.17103 12.8538L6.88132 13.9438C6.88132 14.1138 6.77142 14.1738 6.60159 14.0538C5.32283 13.4938 4.58355 11.6738 4.58355 10.2038C4.58355 7.04384 6.82137 4.17384 11.1372 4.17384C14.5738 4.17384 17.2512 6.64384 17.2512 9.92384C17.2512 13.3638 15.1233 16.1238 12.0763 16.1238C11.1072 16.1238 10.1581 15.6038 9.81845 14.9938L9.14911 17.3638C8.91933 18.2238 8.28994 19.3738 7.86036 20.0638V20.0338Z" fill="black"/>
</svg>
