<svg width="21" height="20" viewBox="0 0 21 20" fill="none" xmlns="http://www.w3.org/2000/svg">
<path d="M10.0467 7C9.25182 7 8.4895 7.31607 7.92743 7.87868C7.36537 8.44129 7.04961 9.20435 7.04961 10C7.04961 10.7956 7.36537 11.5587 7.92743 12.1213C8.4895 12.6839 9.25182 13 10.0467 13C10.8416 13 11.6039 12.6839 12.1659 12.1213C12.728 11.5587 13.0438 10.7956 13.0438 10C13.0438 9.20435 12.728 8.44129 12.1659 7.87868C11.6039 7.31607 10.8416 7 10.0467 7ZM10.0467 5C11.3715 5 12.642 5.52678 13.5788 6.46447C14.5156 7.40215 15.0418 8.67392 15.0418 10C15.0418 11.3261 14.5156 12.5979 13.5788 13.5355C12.642 14.4732 11.3715 15 10.0467 15C8.7219 15 7.45137 14.4732 6.5146 13.5355C5.57783 12.5979 5.05156 11.3261 5.05156 10C5.05156 8.67392 5.57783 7.40215 6.5146 6.46447C7.45137 5.52678 8.7219 5 10.0467 5ZM16.5404 4.75C16.5404 5.08152 16.4088 5.39946 16.1746 5.63388C15.9404 5.8683 15.6228 6 15.2916 6C14.9604 6 14.6428 5.8683 14.4086 5.63388C14.1744 5.39946 14.0428 5.08152 14.0428 4.75C14.0428 4.41848 14.1744 4.10054 14.4086 3.86612C14.6428 3.6317 14.9604 3.5 15.2916 3.5C15.6228 3.5 15.9404 3.6317 16.1746 3.86612C16.4088 4.10054 16.5404 4.41848 16.5404 4.75ZM10.0467 2C7.5751 2 7.17149 2.007 6.02161 2.058C5.23837 2.095 4.71288 2.2 4.22536 2.39C3.81759 2.54037 3.44884 2.78063 3.14641 3.093C2.83399 3.39562 2.59361 3.76474 2.44309 4.173C2.25328 4.663 2.14838 5.188 2.11242 5.971C2.06047 7.075 2.05347 7.461 2.05347 10C2.05347 12.475 2.06047 12.878 2.11142 14.029C2.14838 14.812 2.25328 15.339 2.4421 15.826C2.61193 16.261 2.81174 16.574 3.14341 16.906C3.48009 17.242 3.79278 17.443 4.22236 17.609C4.71588 17.8 5.24137 17.906 6.02061 17.942C7.12354 17.994 7.50916 18 10.0457 18C12.5183 18 12.9209 17.993 14.0708 17.942C14.852 17.905 15.3775 17.8 15.866 17.611C16.2738 17.4606 16.6425 17.2204 16.945 16.908C17.2816 16.572 17.4825 16.259 17.6483 15.828C17.8381 15.336 17.944 14.81 17.98 14.028C18.0319 12.925 18.0379 12.538 18.0379 10C18.0379 7.526 18.0309 7.122 17.98 5.971C17.943 5.189 17.8371 4.661 17.6483 4.173C17.4981 3.76483 17.258 3.39572 16.946 3.093C16.6436 2.78027 16.2749 2.53966 15.867 2.389C15.3775 2.199 14.852 2.094 14.0708 2.058C12.9688 2.006 12.5832 2 10.0457 2M10.0457 0C12.76 0 13.0987 0.00999994 14.1647 0.0599999C15.2276 0.11 15.9529 0.277 16.5893 0.525C17.2487 0.779 17.8041 1.123 18.3596 1.678C18.8678 2.17773 19.2609 2.78247 19.5115 3.45C19.7582 4.087 19.9261 4.813 19.976 5.878C20.023 6.944 20.036 7.283 20.036 10C20.036 12.717 20.026 13.056 19.976 14.122C19.9261 15.188 19.7582 15.912 19.5115 16.55C19.2609 17.2175 18.8678 17.8223 18.3596 18.322C17.8604 18.8307 17.2562 19.2242 16.5893 19.475C15.9529 19.722 15.2276 19.89 14.1647 19.94C13.0987 19.987 12.76 20 10.0457 20C7.33134 20 6.99267 19.99 5.9267 19.94C4.86374 19.89 4.13944 19.722 3.50206 19.475C2.83519 19.2242 2.23103 18.8307 1.73179 18.322C1.22359 17.8223 0.830481 17.2175 0.579909 16.55C0.332151 15.913 0.165313 15.187 0.115361 14.122C0.0674082 13.056 0.0554199 12.717 0.0554199 10C0.0554199 7.283 0.0654101 6.944 0.115361 5.878C0.165313 4.812 0.332151 4.088 0.579909 3.45C0.830481 2.78247 1.22359 2.17773 1.73179 1.678C2.23103 1.16931 2.83519 0.775816 3.50206 0.525C4.13844 0.277 4.86274 0.11 5.9267 0.0599999C6.99366 0.0129999 7.33233 0 10.0467 0" fill="black"/>
</svg>
