<svg width="21" height="20" viewBox="0 0 21 20" fill="none" xmlns="http://www.w3.org/2000/svg">
<path d="M20.6096 2.35294C19.8544 2.76471 19.0403 3.03529 18.1967 3.16471C19.0599 2.54118 19.7268 1.55294 20.0407 0.364706C19.2266 0.952941 18.3242 1.36471 17.3728 1.6C16.598 0.588235 15.5092 0 14.2734 0C11.9684 0 10.0852 2.25882 10.0852 5.04706C10.0852 5.44706 10.1244 5.83529 10.1931 6.2C6.70131 5.98824 3.59205 3.97647 1.52248 0.929412C1.15957 1.67059 0.953592 2.54118 0.953592 3.45882C0.953592 5.21177 1.68922 6.76471 2.82699 7.64706C2.1306 7.64706 1.48325 7.41177 0.914359 7.05882V7.09412C0.914359 9.54118 2.366 11.5882 4.28844 12.0471C3.67134 12.2505 3.0232 12.2787 2.39543 12.1294C2.66183 13.1323 3.18357 14.0099 3.8873 14.6387C4.59103 15.2676 5.44137 15.6161 6.31878 15.6353C4.8315 17.0477 2.98786 17.8111 1.09091 17.8C0.757425 17.8 0.423939 17.7765 0.0904541 17.7294C1.95405 19.1647 4.17074 20 6.54437 20C14.2734 20 18.5204 12.3059 18.5204 5.63529C18.5204 5.41176 18.5204 5.2 18.5106 4.97647C19.3345 4.27059 20.0407 3.37647 20.6096 2.35294Z" fill="black"/>
</svg>
