<svg width="129" height="19" viewBox="0 0 129 19" fill="none" xmlns="http://www.w3.org/2000/svg">
<path d="M3.91846 18H1.11084C1.02946 18 0.98877 17.9593 0.98877 17.8779L1.0376 0.702637C1.0376 0.637533 1.07015 0.60498 1.13525 0.60498H9.14307C9.22445 0.60498 9.26514 0.637533 9.26514 0.702637V3.52246C9.26514 3.58757 9.23258 3.62012 9.16748 3.62012H4.04053V7.50195H9.16748C9.23258 7.50195 9.26514 7.54264 9.26514 7.62402L9.28955 10.4561C9.28955 10.5212 9.24886 10.5537 9.16748 10.5537H4.04053V17.8779C4.04053 17.9593 3.99984 18 3.91846 18ZM18.6133 18.2441C17.7344 18.2441 16.9206 18.0163 16.1719 17.5605C15.4232 17.1048 14.825 16.4945 14.3774 15.7295C13.938 14.9564 13.7183 14.1141 13.7183 13.2026L13.7671 0.702637C13.7671 0.637533 13.7996 0.60498 13.8647 0.60498H16.6724C16.7375 0.60498 16.77 0.637533 16.77 0.702637V13.2026C16.77 13.7642 16.9491 14.2443 17.3071 14.6431C17.6652 15.0337 18.1006 15.229 18.6133 15.229C19.1504 15.229 19.598 15.0337 19.9561 14.6431C20.3141 14.2443 20.4932 13.7642 20.4932 13.2026V0.702637C20.4932 0.637533 20.5257 0.60498 20.5908 0.60498H23.3984C23.4635 0.60498 23.4961 0.637533 23.4961 0.702637L23.5449 13.2026C23.5449 14.1222 23.3252 14.9686 22.8857 15.7417C22.4382 16.5067 21.8441 17.117 21.1035 17.5728C20.363 18.0203 19.5329 18.2441 18.6133 18.2441ZM30.9399 18H28.1079C28.0428 18 28.0103 17.9593 28.0103 17.8779L28.0591 0.702637C28.0591 0.637533 28.0916 0.60498 28.1567 0.60498H33.2104C34.1138 0.60498 34.9438 0.824707 35.7007 1.26416C36.4575 1.70361 37.0597 2.29362 37.5073 3.03418C37.9631 3.77474 38.1909 4.61296 38.1909 5.54883C38.1909 6.15918 38.0973 6.71257 37.9102 7.20898C37.723 7.7054 37.5033 8.12451 37.251 8.46631C37.0068 8.80811 36.783 9.06038 36.5796 9.22314C37.4829 10.2241 37.9346 11.4001 37.9346 12.751L37.959 17.8779C37.959 17.9593 37.9183 18 37.8369 18H35.0049C34.9398 18 34.9072 17.9756 34.9072 17.9268V12.751C34.9072 12.1488 34.6956 11.6279 34.2725 11.1885C33.8493 10.749 33.3285 10.5293 32.71 10.5293H31.062L31.0376 17.8779C31.0376 17.9593 31.005 18 30.9399 18ZM33.2104 3.5957H31.062V7.52637H33.2104C33.7231 7.52637 34.1789 7.33512 34.5776 6.95264C34.9845 6.57015 35.188 6.10221 35.188 5.54883C35.188 5.01986 34.9927 4.56413 34.6021 4.18164C34.2114 3.79102 33.7476 3.5957 33.2104 3.5957ZM45.293 18H42.7905C42.6603 18 42.5952 17.943 42.5952 17.8291L42.5708 0.800293C42.5708 0.670085 42.6359 0.60498 42.7661 0.60498H45.0244L49.248 10.4561L49.126 0.800293C49.126 0.670085 49.1992 0.60498 49.3457 0.60498H51.8237C51.9214 0.60498 51.9702 0.670085 51.9702 0.800293L51.9946 17.8535C51.9946 17.9512 51.9539 18 51.8726 18H49.6753L45.3418 8.7959L45.5249 17.8047C45.5249 17.9349 45.4476 18 45.293 18ZM61.2695 17.9756L56.7896 18C56.7082 18 56.6675 17.9593 56.6675 17.8779L56.7163 0.702637C56.7163 0.637533 56.7489 0.60498 56.814 0.60498L61.4893 0.580566C62.417 0.556152 63.2552 0.767741 64.0039 1.21533C64.7607 1.66292 65.363 2.26921 65.8105 3.03418C66.2663 3.79102 66.4941 4.62923 66.4941 5.54883V12.7266C66.4941 13.6868 66.2622 14.5658 65.7983 15.3633C65.3263 16.1527 64.6997 16.7834 63.9185 17.2554C63.1372 17.7192 62.2542 17.9593 61.2695 17.9756ZM61.4893 3.57129L59.7437 3.5957L59.7192 14.9238H61.2695C61.888 14.9238 62.4089 14.7082 62.832 14.2769C63.2552 13.8455 63.4668 13.3288 63.4668 12.7266V5.52441C63.4668 4.99544 63.2715 4.53564 62.8809 4.14502C62.4902 3.74626 62.0264 3.55501 61.4893 3.57129ZM79.1382 18H71.0571C70.992 18 70.9595 17.9593 70.9595 17.8779L70.9839 0.702637C70.9839 0.637533 71.0164 0.60498 71.0815 0.60498H79.1138C79.1789 0.60498 79.2114 0.645671 79.2114 0.727051V3.52246C79.2114 3.58757 79.1789 3.62012 79.1138 3.62012H73.9868V7.52637H79.1138C79.1789 7.52637 79.2114 7.55892 79.2114 7.62402L79.2358 10.4561C79.2358 10.5212 79.2033 10.5537 79.1382 10.5537H73.9868V14.9238H79.1382C79.2033 14.9238 79.2358 14.9645 79.2358 15.0459V17.9023C79.2358 17.9674 79.2033 18 79.1382 18ZM88.2056 18.2441C87.3185 18.2441 86.5007 18.0163 85.752 17.5605C85.0114 17.1048 84.4173 16.4985 83.9697 15.7417C83.5303 14.9767 83.3105 14.1385 83.3105 13.2271V12.0796C83.3105 11.9901 83.3512 11.9453 83.4326 11.9453H86.2402C86.3053 11.9453 86.3379 11.9901 86.3379 12.0796V13.2271C86.3379 13.7723 86.521 14.2443 86.8872 14.6431C87.2534 15.0337 87.6929 15.229 88.2056 15.229C88.7264 15.229 89.1699 15.0296 89.5361 14.6309C89.9023 14.224 90.0854 13.756 90.0854 13.2271C90.0854 12.6167 89.6867 12.0837 88.8892 11.6279C88.759 11.5465 88.5881 11.4489 88.3765 11.335C88.173 11.2129 87.9289 11.0745 87.644 10.9199C87.3592 10.7653 87.0825 10.6147 86.814 10.4683C86.5454 10.3136 86.285 10.1672 86.0327 10.0288C85.1213 9.4917 84.4417 8.82031 83.9941 8.01465C83.5547 7.20085 83.335 6.28939 83.335 5.28027C83.335 4.35254 83.5628 3.51432 84.0186 2.76562C84.4743 2.02507 85.0684 1.43913 85.8008 1.00781C86.5413 0.568359 87.3429 0.348633 88.2056 0.348633C89.0926 0.348633 89.9064 0.568359 90.647 1.00781C91.3875 1.4554 91.9775 2.04948 92.417 2.79004C92.8646 3.5306 93.0884 4.36068 93.0884 5.28027V7.33105C93.0884 7.39616 93.0558 7.42871 92.9907 7.42871H90.1831C90.118 7.42871 90.0854 7.39616 90.0854 7.33105L90.061 5.28027C90.061 4.69434 89.8779 4.21826 89.5117 3.85205C89.1455 3.48584 88.7101 3.30273 88.2056 3.30273C87.6929 3.30273 87.2534 3.49805 86.8872 3.88867C86.521 4.2793 86.3379 4.74316 86.3379 5.28027C86.3379 5.82552 86.4518 6.28125 86.6797 6.64746C86.9157 7.01367 87.3429 7.36361 87.9614 7.69727C88.0265 7.72982 88.1771 7.8112 88.4131 7.94141C88.6491 8.07161 88.9095 8.2181 89.1943 8.38086C89.4873 8.53548 89.7518 8.6779 89.9878 8.80811C90.2238 8.93018 90.3662 9.00342 90.415 9.02783C91.2451 9.4917 91.9002 10.0614 92.3804 10.7368C92.8687 11.4123 93.1128 12.2424 93.1128 13.2271C93.1128 14.1792 92.8931 15.0337 92.4536 15.7905C92.006 16.5474 91.4119 17.1455 90.6714 17.585C89.9308 18.0244 89.1089 18.2441 88.2056 18.2441ZM100.3 18H97.4683C97.3869 18 97.3462 17.9593 97.3462 17.8779L97.3706 0.702637C97.3706 0.637533 97.4032 0.60498 97.4683 0.60498H100.276C100.341 0.60498 100.374 0.637533 100.374 0.702637L100.398 17.8779C100.398 17.9593 100.365 18 100.3 18ZM109.673 18.2441C108.77 18.2441 107.956 18.0203 107.231 17.5728C106.499 17.1252 105.909 16.5229 105.461 15.7661C105.022 15.0093 104.802 14.1629 104.802 13.2271V5.30469C104.802 4.39323 105.026 3.56315 105.474 2.81445C105.913 2.05762 106.503 1.4554 107.244 1.00781C107.984 0.552083 108.794 0.324219 109.673 0.324219C110.592 0.324219 111.423 0.543945 112.163 0.983398C112.904 1.43099 113.49 2.02913 113.921 2.77783C114.36 3.52653 114.58 4.36882 114.58 5.30469V6.45215C114.58 6.51725 114.539 6.5498 114.458 6.5498H111.65C111.585 6.5498 111.553 6.51725 111.553 6.45215V5.5C111.553 4.86523 111.374 4.34033 111.016 3.92529C110.658 3.51025 110.21 3.30273 109.673 3.30273C109.193 3.30273 108.765 3.50212 108.391 3.90088C108.017 4.29964 107.83 4.76758 107.83 5.30469V13.2271C107.83 13.7723 108.013 14.2443 108.379 14.6431C108.745 15.0337 109.176 15.229 109.673 15.229C110.21 15.229 110.658 15.0378 111.016 14.6553C111.374 14.2646 111.553 13.7886 111.553 13.2271V11.9941H109.807C109.718 11.9941 109.673 11.9535 109.673 11.8721V9.07666C109.673 8.99528 109.718 8.95459 109.807 8.95459H114.482C114.548 8.95459 114.58 8.99528 114.58 9.07666V13.2271C114.58 14.1629 114.36 15.0093 113.921 15.7661C113.473 16.5229 112.883 17.1252 112.151 17.5728C111.418 18.0203 110.592 18.2441 109.673 18.2441ZM121.572 18H119.07C118.94 18 118.875 17.943 118.875 17.8291L118.85 0.800293C118.85 0.670085 118.915 0.60498 119.045 0.60498H121.304L125.527 10.4561L125.405 0.800293C125.405 0.670085 125.479 0.60498 125.625 0.60498H128.103C128.201 0.60498 128.25 0.670085 128.25 0.800293L128.274 17.8535C128.274 17.9512 128.233 18 128.152 18H125.955L121.621 8.7959L121.804 17.8047C121.804 17.9349 121.727 18 121.572 18Z" fill="black"/>
</svg>
